<svg width="88" height="88" viewBox="0 0 88 88" fill="none" xmlns="http://www.w3.org/2000/svg">
<g filter="url(#filter0_d_5_74)">
<circle cx="44" cy="44" r="34" fill="#79BED5"/>
<circle cx="44" cy="44" r="35.5" stroke="white" stroke-width="3"/>
</g>
<path d="M34.6776 52.4884L28.0901 59.1425C27.3582 59.8079 26.3822 60.2515 25.3176 60.2515C24.2881 60.2515 23.3008 59.8425 22.5729 59.1146C21.845 58.3867 21.436 57.3994 21.436 56.3699V55.8154L23.6541 39.4464C23.8777 36.9525 25.0256 34.6324 26.8723 32.9415C28.7191 31.2507 31.1313 30.3114 33.6352 30.3082H53.5974C58.8319 30.3082 63.1127 34.3228 63.5785 39.4464L65.7965 55.8154V56.3699C65.7965 57.3994 65.3875 58.3867 64.6596 59.1146C63.9317 59.8425 62.9444 60.2515 61.915 60.2515C60.8503 60.2515 59.8744 59.8079 59.1424 59.1425L52.5549 52.4884H34.6776ZM32.5262 34.7442V39.1803H28.0901V41.3983H32.5262V45.8343H34.7442V41.3983H39.1802V39.1803H34.7442V34.7442H32.5262ZM53.5974 34.7442C53.1562 34.7442 52.7331 34.9195 52.4211 35.2314C52.1091 35.5434 51.9339 35.9665 51.9339 36.4077C51.9339 36.8489 52.1091 37.272 52.4211 37.584C52.7331 37.896 53.1562 38.0712 53.5974 38.0712C54.0386 38.0712 54.4617 37.896 54.7737 37.584C55.0856 37.272 55.2609 36.8489 55.2609 36.4077C55.2609 35.9665 55.0856 35.5434 54.7737 35.2314C54.4617 34.9195 54.0386 34.7442 53.5974 34.7442ZM49.7158 38.6258C49.2746 38.6258 48.8515 38.801 48.5395 39.113C48.2276 39.425 48.0523 39.8481 48.0523 40.2893C48.0523 40.7305 48.2276 41.1536 48.5395 41.4656C48.8515 41.7775 49.2746 41.9528 49.7158 41.9528C50.157 41.9528 50.5801 41.7775 50.8921 41.4656C51.2041 41.1536 51.3793 40.7305 51.3793 40.2893C51.3793 39.8481 51.2041 39.425 50.8921 39.113C50.5801 38.801 50.157 38.6258 49.7158 38.6258ZM57.4789 38.6258C57.0377 38.6258 56.6146 38.801 56.3026 39.113C55.9907 39.425 55.8154 39.8481 55.8154 40.2893C55.8154 40.7305 55.9907 41.1536 56.3026 41.4656C56.6146 41.7775 57.0377 41.9528 57.4789 41.9528C57.9201 41.9528 58.3432 41.7775 58.6552 41.4656C58.9672 41.1536 59.1424 40.7305 59.1424 40.2893C59.1424 39.8481 58.9672 39.425 58.6552 39.113C58.3432 38.801 57.9201 38.6258 57.4789 38.6258ZM53.5974 42.5073C53.1562 42.5073 52.7331 42.6826 52.4211 42.9945C52.1091 43.3065 51.9339 43.7296 51.9339 44.1708C51.9339 44.612 52.1091 45.0351 52.4211 45.3471C52.7331 45.6591 53.1562 45.8343 53.5974 45.8343C54.0386 45.8343 54.4617 45.6591 54.7737 45.3471C55.0856 45.0351 55.2609 44.612 55.2609 44.1708C55.2609 43.7296 55.0856 43.3065 54.7737 42.9945C54.4617 42.6826 54.0386 42.5073 53.5974 42.5073Z" fill="white"/>
<defs>
<filter id="filter0_d_5_74" x="0.3" y="0.3" width="87.4" height="87.4" filterUnits="userSpaceOnUse" color-interpolation-filters="sRGB">
<feFlood flood-opacity="0" result="BackgroundImageFix"/>
<feColorMatrix in="SourceAlpha" type="matrix" values="0 0 0 0 0 0 0 0 0 0 0 0 0 0 0 0 0 0 127 0" result="hardAlpha"/>
<feOffset/>
<feGaussianBlur stdDeviation="3.35"/>
<feComposite in2="hardAlpha" operator="out"/>
<feColorMatrix type="matrix" values="0 0 0 0 0 0 0 0 0 0 0 0 0 0 0 0 0 0 0.25 0"/>
<feBlend mode="normal" in2="BackgroundImageFix" result="effect1_dropShadow_5_74"/>
<feBlend mode="normal" in="SourceGraphic" in2="effect1_dropShadow_5_74" result="shape"/>
</filter>
</defs>
</svg>
