<svg width="58" height="58" viewBox="0 0 58 58" fill="none" xmlns="http://www.w3.org/2000/svg">
<g filter="url(#filter0_d_5_244)">
<circle cx="29" cy="29" r="20" fill="#4C92A9"/>
<circle cx="29" cy="29" r="21" stroke="white" stroke-width="2"/>
</g>
<path fill-rule="evenodd" clip-rule="evenodd" d="M40.9178 29.1365C40.9178 22.6273 35.65 17.0834 29.1528 17.0834C25.4461 17.0834 21.9269 18.6672 19.6763 21.291C19.2271 21.048 18.7733 20.8136 18.3151 20.588C17.6613 20.2684 17.0097 20.7477 17.0898 21.472C17.404 24.2935 18.1325 26.1693 18.5307 27.023C18.6872 27.3588 19.0247 27.5538 19.3941 27.5213C20.3312 27.44 22.3175 27.134 24.9137 25.9954C25.5799 25.7029 25.6698 24.9002 25.067 24.4928C24.6851 24.2363 24.2986 23.9865 23.9078 23.7437C25.2511 22.3197 27.0332 21.369 29.1522 21.369C33.583 21.369 37.1743 24.6987 37.1743 29.1365C37.1743 31.0692 36.4929 32.8426 35.3575 34.2287C35.0185 34.6431 34.9567 35.2352 35.2671 35.6717L36.2193 37.0118C36.5915 37.5356 37.339 37.6239 37.7761 37.1527C39.7996 34.974 40.9222 32.1094 40.9178 29.136V29.1365ZM26.8902 39.5122C26.8008 40.1345 26.199 40.5549 25.6027 40.3561C24.099 39.8533 22.7257 39.023 21.5819 37.9251C21.1496 37.5118 21.2038 36.8233 21.6566 36.4328L22.5991 35.6197C22.9989 35.2752 23.585 35.2742 24.0237 35.5683C24.7273 36.0395 25.4898 36.4159 26.2917 36.6879C26.8279 36.8694 27.1952 37.391 27.115 37.9511L26.8902 39.5122ZM20.816 35.0375C20.3176 35.467 19.5512 35.3576 19.2533 34.771C18.9429 34.1582 18.6833 33.5211 18.477 32.8659C18.2208 32.054 18.8681 31.2788 19.7196 31.2788C20.3328 31.2788 20.8582 31.6959 21.1133 32.2538C21.2341 32.5187 21.3733 32.7765 21.5277 33.0262C21.8381 33.5284 21.7904 34.1962 21.3435 34.5825L20.816 35.0375ZM34.6799 39.5414C35.2205 39.2543 35.3473 38.5556 34.993 38.0572L34.0662 36.7529C33.7315 36.2817 33.088 36.1636 32.5647 36.4095C31.7011 36.8141 30.7726 37.0625 29.8223 37.1429C29.2703 37.1895 28.7893 37.5817 28.7102 38.1304L28.4789 39.7402C28.3895 40.362 28.8478 40.9346 29.4761 40.9162C31.2933 40.8637 33.0739 40.3933 34.6799 39.5414Z" fill="white"/>
<defs>
<filter id="filter0_d_5_244" x="0.3" y="0.3" width="57.4" height="57.4" filterUnits="userSpaceOnUse" color-interpolation-filters="sRGB">
<feFlood flood-opacity="0" result="BackgroundImageFix"/>
<feColorMatrix in="SourceAlpha" type="matrix" values="0 0 0 0 0 0 0 0 0 0 0 0 0 0 0 0 0 0 127 0" result="hardAlpha"/>
<feOffset/>
<feGaussianBlur stdDeviation="3.35"/>
<feComposite in2="hardAlpha" operator="out"/>
<feColorMatrix type="matrix" values="0 0 0 0 0 0 0 0 0 0 0 0 0 0 0 0 0 0 0.25 0"/>
<feBlend mode="normal" in2="BackgroundImageFix" result="effect1_dropShadow_5_244"/>
<feBlend mode="normal" in="SourceGraphic" in2="effect1_dropShadow_5_244" result="shape"/>
</filter>
</defs>
</svg>
