<svg width="88" height="88" viewBox="0 0 88 88" fill="none" xmlns="http://www.w3.org/2000/svg">
<g filter="url(#filter0_d_14_329)">
<circle cx="44" cy="44" r="34" fill="#79BED5"/>
<circle cx="44" cy="44" r="35.5" stroke="white" stroke-width="3"/>
</g>
<path d="M63.4697 50.7273L66.6415 47.5555L63.4697 44.3837L55.5514 52.3021L36.5429 33.2936L44.4612 25.3753L41.2895 22.2035L38.1177 25.3753L34.9459 22.2035L30.1993 26.9501L27.0276 23.7783L23.8558 26.9501L27.0276 30.1218L22.281 34.8684L25.4528 38.0402L22.281 41.212L25.4528 44.3837L33.3711 36.4654L52.3796 55.4738L44.4612 63.3922L47.633 66.564L50.8048 63.3922L53.9766 66.564L58.7231 61.8174L61.8949 64.9892L65.0667 61.8174L61.8949 58.6456L66.6415 53.899L63.4697 50.7273Z" fill="white"/>
<defs>
<filter id="filter0_d_14_329" x="0.3" y="0.3" width="87.4" height="87.4" filterUnits="userSpaceOnUse" color-interpolation-filters="sRGB">
<feFlood flood-opacity="0" result="BackgroundImageFix"/>
<feColorMatrix in="SourceAlpha" type="matrix" values="0 0 0 0 0 0 0 0 0 0 0 0 0 0 0 0 0 0 127 0" result="hardAlpha"/>
<feOffset/>
<feGaussianBlur stdDeviation="3.35"/>
<feComposite in2="hardAlpha" operator="out"/>
<feColorMatrix type="matrix" values="0 0 0 0 0 0 0 0 0 0 0 0 0 0 0 0 0 0 0.25 0"/>
<feBlend mode="normal" in2="BackgroundImageFix" result="effect1_dropShadow_14_329"/>
<feBlend mode="normal" in="SourceGraphic" in2="effect1_dropShadow_14_329" result="shape"/>
</filter>
</defs>
</svg>
