<svg width="88" height="88" viewBox="0 0 88 88" fill="none" xmlns="http://www.w3.org/2000/svg">
<g filter="url(#filter0_d_5_66)">
<circle cx="44" cy="44" r="34" fill="#79BED5"/>
<circle cx="44" cy="44" r="35.5" stroke="white" stroke-width="3"/>
</g>
<path d="M44.4613 33.7442L41.5113 33.9438C39.6038 31.6814 34.2583 25.9811 28.9351 25.9811C28.9351 25.9811 24.5656 32.5464 28.8464 41.3076C27.6265 43.1486 26.8723 44.1023 26.7171 46.2982L22.4363 46.9414L22.9021 49.1151L26.8058 48.5384L27.1163 50.1132L23.634 52.1981L24.6765 54.1722L27.8926 52.1981C30.4433 57.6101 36.8978 60.3604 44.4613 60.3604C52.0247 60.3604 58.4792 57.6101 61.0299 52.1981L64.246 54.1722L65.2885 52.1981L61.8062 50.1132L62.1167 48.5384L66.0204 49.1151L66.4862 46.9414L62.2054 46.2982C62.0502 44.1023 61.2961 43.1486 60.0761 41.3076C64.3569 32.5464 59.9874 25.9811 59.9874 25.9811C54.6642 25.9811 49.3187 31.6814 47.4112 33.9438L44.4613 33.7442ZM37.8072 40.3982C38.3954 40.3982 38.9596 40.6319 39.3756 41.0479C39.7915 41.4638 40.0252 42.028 40.0252 42.6163C40.0252 43.2045 39.7915 43.7687 39.3756 44.1846C38.9596 44.6006 38.3954 44.8343 37.8072 44.8343C37.2189 44.8343 36.6548 44.6006 36.2388 44.1846C35.8228 43.7687 35.5892 43.2045 35.5892 42.6163C35.5892 42.028 35.8228 41.4638 36.2388 41.0479C36.6548 40.6319 37.2189 40.3982 37.8072 40.3982ZM51.1153 40.3982C51.7036 40.3982 52.2677 40.6319 52.6837 41.0479C53.0997 41.4638 53.3333 42.028 53.3333 42.6163C53.3333 43.2045 53.0997 43.7687 52.6837 44.1846C52.2677 44.6006 51.7036 44.8343 51.1153 44.8343C50.5271 44.8343 49.9629 44.6006 49.5469 44.1846C49.131 43.7687 48.8973 43.2045 48.8973 42.6163C48.8973 42.028 49.131 41.4638 49.5469 41.0479C49.9629 40.6319 50.5271 40.3982 51.1153 40.3982ZM42.2432 47.0523H46.6793L45.1267 50.1354C45.5703 51.5549 46.8124 52.5974 48.3428 52.5974C49.2252 52.5974 50.0714 52.2468 50.6954 51.6229C51.3193 50.999 51.6698 50.1527 51.6698 49.2703H52.7788C52.7788 50.4468 52.3115 51.5752 51.4795 52.4071C50.6476 53.239 49.5193 53.7064 48.3428 53.7064C46.6793 53.7064 45.2376 52.797 44.4613 51.4883C43.6849 52.797 42.2432 53.7064 40.5797 53.7064C39.4032 53.7064 38.2749 53.239 37.443 52.4071C36.611 51.5752 36.1437 50.4468 36.1437 49.2703H37.2527C37.2527 50.1527 37.6032 50.999 38.2271 51.6229C38.8511 52.2468 39.6973 52.5974 40.5797 52.5974C42.1101 52.5974 43.3522 51.5549 43.7958 50.1354L42.2432 47.0523Z" fill="white"/>
<defs>
<filter id="filter0_d_5_66" x="0.3" y="0.3" width="87.4" height="87.4" filterUnits="userSpaceOnUse" color-interpolation-filters="sRGB">
<feFlood flood-opacity="0" result="BackgroundImageFix"/>
<feColorMatrix in="SourceAlpha" type="matrix" values="0 0 0 0 0 0 0 0 0 0 0 0 0 0 0 0 0 0 127 0" result="hardAlpha"/>
<feOffset/>
<feGaussianBlur stdDeviation="3.35"/>
<feComposite in2="hardAlpha" operator="out"/>
<feColorMatrix type="matrix" values="0 0 0 0 0 0 0 0 0 0 0 0 0 0 0 0 0 0 0.25 0"/>
<feBlend mode="normal" in2="BackgroundImageFix" result="effect1_dropShadow_5_66"/>
<feBlend mode="normal" in="SourceGraphic" in2="effect1_dropShadow_5_66" result="shape"/>
</filter>
</defs>
</svg>
