<svg width="80" height="80" viewBox="0 0 80 80" fill="none" xmlns="http://www.w3.org/2000/svg">
<g filter="url(#filter0_d_5_155)">
<circle cx="40" cy="40" r="31.5" fill="#79BED5" stroke="white" stroke-width="3"/>
<g clip-path="url(#clip0_5_155)">
<path fill-rule="evenodd" clip-rule="evenodd" d="M40.5 23.9983C46.3049 23.9983 51.1421 28.9916 51.1421 34.9837C51.1421 36.9393 50.4909 38.868 49.5808 40.6154C48.6672 42.3697 47.4577 44.0076 46.2562 45.402C45.0523 46.7992 43.8359 47.9755 42.8882 48.8066C42.4148 49.2217 42.0005 49.5577 41.681 49.7957C41.5233 49.9131 41.3755 50.0165 41.2479 50.0955C41.1858 50.1339 41.1102 50.1783 41.0297 50.2167C40.9896 50.2357 40.932 50.2613 40.8633 50.2839C40.8092 50.3017 40.674 50.3435 40.5 50.3435C40.3245 50.3435 40.1883 50.301 40.134 50.283C40.0649 50.2599 40.0071 50.2341 39.9669 50.2149C39.8863 50.176 39.8106 50.1314 39.7485 50.0926C39.621 50.0128 39.4733 49.9086 39.3156 49.7902C38.9964 49.5506 38.5822 49.2123 38.1091 48.7945C37.1618 47.9584 35.946 46.776 34.7427 45.3751C33.5419 43.9769 32.333 42.3375 31.4197 40.5874C30.5103 38.8448 29.858 36.924 29.858 34.9837C29.858 28.9916 34.6952 23.9983 40.5 23.9983ZM40.5 38.2645C38.7447 38.2645 37.3217 36.7957 37.3217 34.9837C37.3217 33.1717 38.7447 31.7029 40.5 31.7029C42.2554 31.7029 43.6783 33.1717 43.6783 34.9837C43.6783 36.7957 42.2554 38.2645 40.5 38.2645ZM47.3625 47.2146C47.771 46.7405 48.1798 46.2439 48.581 45.7279H51.555C51.9979 45.7279 52.3982 46.0003 52.5727 46.4205L55.8891 54.4087C56.0356 54.7618 56.0007 55.1673 55.7958 55.488C55.591 55.8087 55.2436 56.0016 54.8716 56.0016H26.1285C25.7564 56.0016 25.4091 55.8087 25.2042 55.488C24.9994 55.1673 24.9643 54.7618 25.1109 54.4087L28.4274 46.4205C28.6018 46.0003 29.0021 45.7279 29.445 45.7279H32.4461C32.8382 46.2318 33.2373 46.7175 33.6361 47.1817C35.1009 48.8873 36.5813 50.3271 37.7337 51.3442C38.3095 51.8526 38.8114 52.2624 39.1958 52.5509C39.386 52.6937 39.5606 52.8167 39.7085 52.909C39.7807 52.9543 39.8649 53.0037 39.9522 53.0457C39.9957 53.0667 40.0564 53.0937 40.128 53.1175C40.1847 53.1365 40.3229 53.1794 40.4999 53.1794C40.6754 53.1794 40.8126 53.1371 40.8691 53.1186C40.9403 53.0951 41.0008 53.0683 41.0442 53.0475C41.1314 53.0059 41.2155 52.957 41.2877 52.9122C41.4356 52.8206 41.6103 52.6985 41.8006 52.5568C42.1852 52.2704 42.6874 51.8635 43.2633 51.3584C44.4162 50.3474 45.8972 48.9152 47.3625 47.2146Z" fill="white"/>
</g>
</g>
<defs>
<filter id="filter0_d_5_155" x="0.3" y="0.3" width="79.4" height="79.4" filterUnits="userSpaceOnUse" color-interpolation-filters="sRGB">
<feFlood flood-opacity="0" result="BackgroundImageFix"/>
<feColorMatrix in="SourceAlpha" type="matrix" values="0 0 0 0 0 0 0 0 0 0 0 0 0 0 0 0 0 0 127 0" result="hardAlpha"/>
<feOffset/>
<feGaussianBlur stdDeviation="3.35"/>
<feComposite in2="hardAlpha" operator="out"/>
<feColorMatrix type="matrix" values="0 0 0 0 0 0 0 0 0 0 0 0 0 0 0 0 0 0 0.25 0"/>
<feBlend mode="normal" in2="BackgroundImageFix" result="effect1_dropShadow_5_155"/>
<feBlend mode="normal" in="SourceGraphic" in2="effect1_dropShadow_5_155" result="shape"/>
</filter>
<clipPath id="clip0_5_155">
<rect width="31" height="32" fill="white" transform="translate(25 24)"/>
</clipPath>
</defs>
</svg>
