<svg width="88" height="88" viewBox="0 0 88 88" fill="none" xmlns="http://www.w3.org/2000/svg">
<g filter="url(#filter0_d_5_82)">
<circle cx="44" cy="44" r="34" fill="#79BED5"/>
<circle cx="44" cy="44" r="35.5" stroke="white" stroke-width="3"/>
</g>
<path d="M43.6163 19.218C32.5261 19.218 23.6541 28.0901 23.6541 39.1802V54.7064C23.6541 56.4712 24.3551 58.1636 25.603 59.4115C26.8509 60.6594 28.5434 61.3605 30.3081 61.3605H36.9622V43.6163H28.0901V39.1802C28.0901 35.0624 29.7259 31.1133 32.6376 28.2016C35.5493 25.2899 39.4985 23.6541 43.6163 23.6541C47.7341 23.6541 51.6832 25.2899 54.5949 28.2016C57.5066 31.1133 59.1424 35.0624 59.1424 39.1802V43.6163H50.2703V61.3605H56.9244C58.6892 61.3605 60.3817 60.6594 61.6295 59.4115C62.8774 58.1636 63.5785 56.4712 63.5785 54.7064V39.1802C63.5785 28.0901 54.6398 19.218 43.6163 19.218Z" fill="white"/>
<defs>
<filter id="filter0_d_5_82" x="0.3" y="0.3" width="87.4" height="87.4" filterUnits="userSpaceOnUse" color-interpolation-filters="sRGB">
<feFlood flood-opacity="0" result="BackgroundImageFix"/>
<feColorMatrix in="SourceAlpha" type="matrix" values="0 0 0 0 0 0 0 0 0 0 0 0 0 0 0 0 0 0 127 0" result="hardAlpha"/>
<feOffset/>
<feGaussianBlur stdDeviation="3.35"/>
<feComposite in2="hardAlpha" operator="out"/>
<feColorMatrix type="matrix" values="0 0 0 0 0 0 0 0 0 0 0 0 0 0 0 0 0 0 0.25 0"/>
<feBlend mode="normal" in2="BackgroundImageFix" result="effect1_dropShadow_5_82"/>
<feBlend mode="normal" in="SourceGraphic" in2="effect1_dropShadow_5_82" result="shape"/>
</filter>
</defs>
</svg>
