<svg width="464" height="190" viewBox="0 0 464 190" fill="none" xmlns="http://www.w3.org/2000/svg">
<mask id="mask0_5_48" style="mask-type:alpha" maskUnits="userSpaceOnUse" x="12" y="12" width="440" height="178">
<rect x="12" y="12" width="440" height="178" rx="60" fill="#4C92A9"/>
</mask>
<g mask="url(#mask0_5_48)">
<g filter="url(#filter0_d_5_48)">
<path fill-rule="evenodd" clip-rule="evenodd" d="M100 57C120.435 57 137 40.4345 137 20C137 -0.434536 120.435 -17 100 -17C83.2119 -17 69.0353 -5.81913 64.5103 9.50236C59.9977 5.45901 54.036 3 47.5 3C33.4167 3 22 14.4167 22 28.5C22 30.3952 22.2068 32.2421 22.5989 34.0195C11.6952 34.491 3 43.4801 3 54.5C3 65.8218 12.1782 75 23.5 75C34.8218 75 44 65.8218 44 54.5C44 54.2523 43.9956 54.0056 43.9869 53.76C45.1353 53.9182 46.3081 54 47.5 54C56.9768 54 65.2462 48.8303 69.642 41.1572C76.3292 50.7347 87.4329 57 100 57ZM286.23 46.8557C281.7 60.3101 268.982 70 254 70C247.978 70 242.321 68.4342 237.415 65.6875C231.967 69.6575 225.257 72 218 72C208.567 72 200.059 68.0422 194.044 61.6966C191.01 63.1722 187.601 64 184 64C178.851 64 174.097 62.3081 170.264 59.45C168.22 60.443 165.925 61 163.5 61C154.94 61 148 54.0604 148 45.5C148 36.9396 154.94 30 163.5 30C163.598 30 163.697 30.0009 163.795 30.0027C167.695 22.8517 175.281 18 184 18C186.644 18 189.183 18.446 191.547 19.267C197.565 11.2135 207.174 6 218 6C223.297 6 228.303 7.24807 232.739 9.46618C238.561 4.79465 245.954 2 254 2C266.367 2 277.192 8.60293 283.142 18.4757C286.969 13.332 293.096 10 300 10C311.598 10 321 19.402 321 31C321 42.598 311.598 52 300 52C294.732 52 289.917 50.0601 286.23 46.8557ZM161 41C161 39.8527 161.084 38.725 161.246 37.6228C157.818 38.6017 155.309 41.7578 155.309 45.5C155.309 50.0239 158.976 53.6912 163.5 53.6912C163.926 53.6912 164.344 53.6587 164.753 53.596C162.38 49.9778 161 45.65 161 41ZM300 42.0977C293.871 42.0977 288.902 37.1291 288.902 31C288.902 24.8709 293.871 19.9023 300 19.9023C306.129 19.9023 311.098 24.8709 311.098 31C311.098 37.1291 306.129 42.0977 300 42.0977ZM411.097 40.4121C406.365 54.1388 393.334 64 378 64C358.67 64 343 48.33 343 29C343 9.67003 358.67 -6 378 -6C390.786 -6 401.971 0.856079 408.078 11.0924C412.528 2.7093 421.347 -3 431.5 -3C446.136 -3 458 8.86445 458 23.5C458 38.1355 446.136 50 431.5 50C423.293 50 415.958 46.2696 411.097 40.4121Z" fill="#79BED5"/>
</g>
</g>
<defs>
<filter id="filter0_d_5_48" x="-12" y="-32" width="485" height="122" filterUnits="userSpaceOnUse" color-interpolation-filters="sRGB">
<feFlood flood-opacity="0" result="BackgroundImageFix"/>
<feColorMatrix in="SourceAlpha" type="matrix" values="0 0 0 0 0 0 0 0 0 0 0 0 0 0 0 0 0 0 127 0" result="hardAlpha"/>
<feOffset/>
<feGaussianBlur stdDeviation="7.5"/>
<feComposite in2="hardAlpha" operator="out"/>
<feColorMatrix type="matrix" values="0 0 0 0 0 0 0 0 0 0 0 0 0 0 0 0 0 0 0.6 0"/>
<feBlend mode="normal" in2="BackgroundImageFix" result="effect1_dropShadow_5_48"/>
<feBlend mode="normal" in="SourceGraphic" in2="effect1_dropShadow_5_48" result="shape"/>
</filter>
</defs>
</svg>
