<svg width="458" height="179" viewBox="0 0 458 179" fill="none" xmlns="http://www.w3.org/2000/svg">
<mask id="mask0_5_226" style="mask-type:alpha" maskUnits="userSpaceOnUse" x="6" y="12" width="440" height="167">
<rect x="6" y="12" width="440" height="167" rx="60" fill="#4C92A9"/>
</mask>
<g mask="url(#mask0_5_226)">
<g filter="url(#filter0_d_5_226)">
<path fill-rule="evenodd" clip-rule="evenodd" d="M224.317 89.311C209.481 96.0962 192.092 100 173.5 100C153.799 100 135.448 95.6164 120.054 88.0659C114.584 95.3099 105.846 100 96 100C85.9443 100 77.0442 95.1082 71.6009 87.6C67.8534 93.2797 61.3701 97.0337 54 97.0337C46.8588 97.0337 40.5501 93.5092 36.7561 88.1235C34.5785 91.124 31.0201 93.0786 27 93.0786C20.3726 93.0786 15 87.7664 15 81.2135C15 74.6605 20.3726 69.3483 27 69.3483C29.4399 69.3483 31.7097 70.0683 33.604 71.3052C35.212 64.8246 39.8968 59.5392 46.0398 57.0493C41.6998 52.9128 39 47.1052 39 40.6742C39 28.1143 49.2975 17.9326 62 17.9326C66.8673 17.9326 71.3815 19.4275 75.0986 21.9784C77.4237 -17.6866 120.59 -49.3033 173.5 -49.3033C198.654 -49.3033 221.606 -42.1573 239.014 -30.3978C242.897 -31.1251 246.904 -31.5056 251 -31.5056C271.613 -31.5056 289.949 -21.8705 301.655 -6.90682C382.489 -3.21455 443 11.8165 443 29.7978C443 32.9021 441.196 35.9185 437.796 38.8038C441.045 42.6607 443 47.6215 443 53.0337C443 65.3205 432.926 75.2809 420.5 75.2809C412.115 75.2809 404.801 70.7453 400.93 64.0199C399.844 80.2482 386.188 93.0786 369.5 93.0786C362.359 93.0786 355.774 90.7294 350.49 86.7699C347.233 95.0892 339.064 100.989 329.5 100.989C319.824 100.989 311.575 94.9499 308.397 86.4761C303.79 90.5804 297.69 93.0786 291 93.0786C286.075 93.0786 281.471 91.7249 277.545 89.3732C269.459 93.0227 260.47 95.0562 251 95.0562C241.477 95.0562 232.439 92.9996 224.317 89.311ZM54 87.2427C47.8709 87.2427 42.9023 82.3299 42.9023 76.2697C42.9023 70.2094 47.8709 65.2966 54 65.2966C60.1291 65.2966 65.0977 70.2094 65.0977 76.2697C65.0977 82.3299 60.1291 87.2427 54 87.2427Z" fill="#79BED5"/>
</g>
</g>
<defs>
<filter id="filter0_d_5_226" x="0" y="-64.3033" width="458" height="180.292" filterUnits="userSpaceOnUse" color-interpolation-filters="sRGB">
<feFlood flood-opacity="0" result="BackgroundImageFix"/>
<feColorMatrix in="SourceAlpha" type="matrix" values="0 0 0 0 0 0 0 0 0 0 0 0 0 0 0 0 0 0 127 0" result="hardAlpha"/>
<feOffset/>
<feGaussianBlur stdDeviation="7.5"/>
<feComposite in2="hardAlpha" operator="out"/>
<feColorMatrix type="matrix" values="0 0 0 0 0 0 0 0 0 0 0 0 0 0 0 0 0 0 0.6 0"/>
<feBlend mode="normal" in2="BackgroundImageFix" result="effect1_dropShadow_5_226"/>
<feBlend mode="normal" in="SourceGraphic" in2="effect1_dropShadow_5_226" result="shape"/>
</filter>
</defs>
</svg>
