<svg width="464" height="388" viewBox="0 0 464 388" fill="none" xmlns="http://www.w3.org/2000/svg">
<mask id="mask0_5_184" style="mask-type:alpha" maskUnits="userSpaceOnUse" x="12" y="12" width="440" height="376">
<rect x="12" y="12" width="440" height="376" rx="60" fill="#4C92A9"/>
</mask>
<g mask="url(#mask0_5_184)">
<g filter="url(#filter0_d_5_184)">
<path fill-rule="evenodd" clip-rule="evenodd" d="M58 78C75.8737 78 92.2871 71.7476 105.172 61.3107C106.018 65.6914 109.872 69 114.5 69C118.956 69 122.696 65.9318 123.721 61.7927C128.13 65.0645 133.589 67 139.5 67C146.258 67 152.425 64.4704 157.106 60.3063C166.368 71.1358 180.133 78 195.5 78C208.934 78 221.143 72.7542 230.191 64.1992C237.03 71.4641 246.735 76 257.5 76C270.033 76 281.129 69.8521 287.939 60.4077C293.709 66.9056 302.126 71 311.5 71C319.986 71 327.689 67.644 333.353 62.1868C341.924 75.8875 357.148 85 374.5 85C394.157 85 411.082 73.3064 418.699 56.4962C424.246 70.2742 437.737 80 453.5 80C474.211 80 491 63.2107 491 42.5C491 21.7893 474.211 5 453.5 5C443.287 5 434.027 9.08288 427.264 15.7055C424.435 15.2934 421.251 14.8925 417.737 14.5041C409.718 -1.2266 393.367 -12 374.5 -12C357.715 -12 342.921 -3.47314 334.214 9.48525C329.455 9.33022 324.583 9.18616 319.609 9.05363C317.022 8.36629 314.304 8 311.5 8C309.222 8 307 8.24181 304.86 8.70118C296.695 8.52786 288.296 8.38472 279.7 8.27396C273.484 3.70151 265.808 1 257.5 1C251.462 1 245.757 2.42711 240.704 4.96243C232.423 -11.6153 215.291 -23 195.5 -23C174.067 -23 155.753 -9.64849 148.421 9.19083C143.052 9.34434 137.809 9.51144 132.706 9.69141C132.9 7.48695 133 5.2551 133 3C133 -38.4214 99.4214 -72 58 -72C16.5786 -72 -17 -38.4214 -17 3C-17 44.4214 16.5786 78 58 78ZM110.666 59.5C110.666 61.6176 112.382 63.3342 114.5 63.3342C116.618 63.3342 118.334 61.6176 118.334 59.5C118.334 57.3824 116.618 55.6658 114.5 55.6658C112.382 55.6658 110.666 57.3824 110.666 59.5ZM429 79.5C429 84.7467 424.747 89 419.5 89C414.253 89 410 84.7467 410 79.5C410 74.2533 414.253 70 419.5 70C424.747 70 429 74.2533 429 79.5ZM415.666 79.5C415.666 81.6176 417.382 83.3342 419.5 83.3342C421.618 83.3342 423.334 81.6176 423.334 79.5C423.334 77.3824 421.618 75.6658 419.5 75.6658C417.382 75.6658 415.666 77.3824 415.666 79.5Z" fill="#79BED5"/>
</g>
</g>
<defs>
<filter id="filter0_d_5_184" x="-32" y="-87" width="538" height="191" filterUnits="userSpaceOnUse" color-interpolation-filters="sRGB">
<feFlood flood-opacity="0" result="BackgroundImageFix"/>
<feColorMatrix in="SourceAlpha" type="matrix" values="0 0 0 0 0 0 0 0 0 0 0 0 0 0 0 0 0 0 127 0" result="hardAlpha"/>
<feOffset/>
<feGaussianBlur stdDeviation="7.5"/>
<feComposite in2="hardAlpha" operator="out"/>
<feColorMatrix type="matrix" values="0 0 0 0 0 0 0 0 0 0 0 0 0 0 0 0 0 0 0.6 0"/>
<feBlend mode="normal" in2="BackgroundImageFix" result="effect1_dropShadow_5_184"/>
<feBlend mode="normal" in="SourceGraphic" in2="effect1_dropShadow_5_184" result="shape"/>
</filter>
</defs>
</svg>
