<svg width="440" height="376" viewBox="0 0 440 376" fill="none" xmlns="http://www.w3.org/2000/svg">
<mask id="mask0_5_408" style="mask-type:alpha" maskUnits="userSpaceOnUse" x="0" y="0" width="440" height="376">
<path d="M380 0H60C26.8629 0 0 26.8629 0 60V316C0 349.137 26.8629 376 60 376H380C413.137 376 440 349.137 440 316V60C440 26.8629 413.137 0 380 0Z" fill="#4C92A9"/>
</mask>
<g mask="url(#mask0_5_408)">
<g filter="url(#filter0_d_5_408)">
<path fill-rule="evenodd" clip-rule="evenodd" d="M431.381 89.6148C457.679 63.3166 457.284 20.2841 430.499 -6.50111C403.714 -33.2863 360.681 -33.6811 334.383 -7.38299C308.085 18.9152 308.48 61.9477 335.265 88.7329C335.628 89.0955 335.993 89.4533 336.362 89.8063C329.915 89.9473 323.55 92.4496 318.674 97.326C308.508 107.492 308.66 124.128 319.015 134.483C329.37 144.838 346.005 144.99 356.172 134.824C364.149 126.847 365.773 114.887 361.1 105.104C363.701 106.029 366.343 106.793 369.012 107.395C369.004 107.596 369 107.798 369 108C369 116.284 375.716 123 384 123C392.284 123 399 116.284 399 108C399 107.813 398.997 107.626 398.99 107.441C410.895 104.768 422.166 98.83 431.381 89.6148ZM384 113.391C381.317 113.391 379.092 111.432 378.678 108.865C382.223 109.148 385.782 109.155 389.319 108.886C388.897 111.442 386.676 113.391 384 113.391ZM101.216 28.1279C109.466 23.2565 115 14.2745 115 4C115 -11.464 102.464 -24 87 -24C74.6209 -24 64.118 -15.9666 60.4203 -4.82869C52.2221 -11.7962 41.602 -16 30 -16C4.04261 -16 -17 5.04262 -17 31C-17 45.1038 -10.7877 57.7567 -0.950203 66.3715C-5.59114 67.5676 -9.98279 69.9828 -13.617 73.617C-24.4512 84.4512 -24.4512 102.017 -13.617 112.851C-2.78283 123.685 14.7829 123.685 25.617 112.851C35.0899 103.378 36.2802 88.7592 29.1879 77.9931C29.458 77.9977 29.7288 78 30 78C55.9574 78 77 56.9574 77 31C77 30.719 76.9976 30.4385 76.9927 30.1587C80.1003 31.3483 83.474 32 87 32C87.1133 32 87.2263 31.9993 87.3393 31.998C82.873 35.4745 80 40.9018 80 47C80 57.4934 88.5066 66 99 66C109.493 66 118 57.4934 118 47C118 37.2562 110.665 29.2255 101.216 28.1279ZM77.8878 111.29C75.4852 112.388 72.8141 113 70 113C59.5066 113 51 104.493 51 94C51 83.5066 59.5066 75 70 75C78.8444 75 86.2773 81.0431 88.3951 89.2254C89.2411 89.0772 90.1115 89 91 89C99.2843 89 106 95.7157 106 104C106 112.284 99.2843 119 91 119C85.3618 119 80.4502 115.889 77.8878 111.29ZM85.6618 104.76C86.0311 107.378 88.2804 109.391 91 109.391C93.9776 109.391 96.3914 106.978 96.3914 104C96.3914 101.022 93.9776 98.6086 91 98.6086C89.9869 98.6086 89.0391 98.888 88.2294 99.374C87.6575 101.317 86.7835 103.13 85.6618 104.76ZM41 134C46.5229 134 51 129.523 51 124C51 118.477 46.5229 114 41 114C35.4772 114 31 118.477 31 124C31 129.523 35.4772 134 41 134ZM454.831 112.667C465.186 123.022 465.338 139.657 455.172 149.824C445.005 159.99 428.37 159.838 418.015 149.483C407.66 139.128 407.508 122.492 417.674 112.326C427.84 102.16 444.476 102.312 454.831 112.667Z" fill="#79BED5"/>
</g>
</g>
<defs>
<filter id="filter0_d_5_408" x="-36.7427" y="-41.8512" width="514.441" height="214.201" filterUnits="userSpaceOnUse" color-interpolation-filters="sRGB">
<feFlood flood-opacity="0" result="BackgroundImageFix"/>
<feColorMatrix in="SourceAlpha" type="matrix" values="0 0 0 0 0 0 0 0 0 0 0 0 0 0 0 0 0 0 127 0" result="hardAlpha"/>
<feOffset/>
<feGaussianBlur stdDeviation="7.5"/>
<feComposite in2="hardAlpha" operator="out"/>
<feColorMatrix type="matrix" values="0 0 0 0 0 0 0 0 0 0 0 0 0 0 0 0 0 0 0.6 0"/>
<feBlend mode="normal" in2="BackgroundImageFix" result="effect1_dropShadow_5_408"/>
<feBlend mode="normal" in="SourceGraphic" in2="effect1_dropShadow_5_408" result="shape"/>
</filter>
</defs>
</svg>
