<svg width="440" height="194" viewBox="0 0 440 194" fill="none" xmlns="http://www.w3.org/2000/svg">
<mask id="mask0_5_427" style="mask-type:alpha" maskUnits="userSpaceOnUse" x="0" y="0" width="440" height="194">
<path d="M0 60C0 26.8629 26.8629 0 60 0H380C413.137 0 440 26.8629 440 60V134C440 167.137 413.137 194 380 194H60C26.8629 194 0 167.137 0 134V60Z" fill="#4C92A9"/>
</mask>
<g mask="url(#mask0_5_427)">
<g filter="url(#filter0_d_5_427)">
<path fill-rule="evenodd" clip-rule="evenodd" d="M303.947 160.192C317.166 157.058 327 145.177 327 131C327 114.431 313.569 101 297 101C286.216 101 276.76 106.69 271.473 115.232C264.892 112.509 257.631 111 250 111C234.445 111 220.426 117.272 210.572 127.31C199.501 116.011 184.069 109 167 109C137.133 109 112.28 130.465 107.024 158.81C100.757 154.513 93.172 152 85 152C77.1752 152 69.8886 154.304 63.7819 158.272C63.9262 156.7 64 155.109 64 153.5C64 125.057 40.9427 102 12.5 102C-15.9427 102 -39 125.057 -39 153.5C-39 181.943 -15.9427 205 12.5 205C25.3068 205 37.0219 200.325 46.0318 192.589C46.8655 213.391 63.9932 230 85 230C100.192 230 113.355 221.314 119.794 208.637C130.981 222.289 147.973 231 167 231C188.177 231 206.833 220.209 217.77 203.825C226.766 210.217 237.92 214 250 214C265.96 214 280.303 207.397 290.189 196.899C290.064 198.249 290 199.617 290 201C290 225.301 309.699 245 334 245C356.57 245 375.171 228.006 377.706 206.115C385.65 210.503 394.783 213 404.5 213C435.152 213 460 188.152 460 157.5C460 126.848 435.152 102 404.5 102C373.848 102 349 126.848 349 157.5C349 158.216 349.014 158.928 349.04 159.638C344.348 157.931 339.283 157 334 157C322.179 157 311.446 161.662 303.541 169.247C303.844 167.039 304 164.787 304 162.5C304 161.726 303.982 160.957 303.947 160.192ZM101 130C101 138.284 94.284 145 86 145C77.7157 145 71 138.284 71 130C71 121.716 77.7157 115 86 115C94.284 115 101 121.716 101 130ZM80.6086 130C80.6086 132.978 83.0224 135.391 86 135.391C88.978 135.391 91.391 132.978 91.391 130C91.391 127.022 88.978 124.609 86 124.609C83.0224 124.609 80.6086 127.022 80.6086 130Z" fill="#79BED5"/>
</g>
</g>
<defs>
<filter id="filter0_d_5_427" x="-54" y="86" width="529" height="174" filterUnits="userSpaceOnUse" color-interpolation-filters="sRGB">
<feFlood flood-opacity="0" result="BackgroundImageFix"/>
<feColorMatrix in="SourceAlpha" type="matrix" values="0 0 0 0 0 0 0 0 0 0 0 0 0 0 0 0 0 0 127 0" result="hardAlpha"/>
<feOffset/>
<feGaussianBlur stdDeviation="7.5"/>
<feComposite in2="hardAlpha" operator="out"/>
<feColorMatrix type="matrix" values="0 0 0 0 0 0 0 0 0 0 0 0 0 0 0 0 0 0 0.6 0"/>
<feBlend mode="normal" in2="BackgroundImageFix" result="effect1_dropShadow_5_427"/>
<feBlend mode="normal" in="SourceGraphic" in2="effect1_dropShadow_5_427" result="shape"/>
</filter>
</defs>
</svg>
