<svg width="448" height="202" viewBox="0 0 448 202" fill="none" xmlns="http://www.w3.org/2000/svg">
<mask id="mask0_5_321" style="mask-type:alpha" maskUnits="userSpaceOnUse" x="8" y="12" width="440" height="190">
<rect x="8" y="12" width="440" height="190" rx="60" fill="#4C92A9"/>
</mask>
<g mask="url(#mask0_5_321)">
<g filter="url(#filter0_d_5_321)">
<path fill-rule="evenodd" clip-rule="evenodd" d="M210.918 6.589C204.775 -2.22926 194.562 -8 183 -8C169.5 -8 157.837 -0.131825 152.348 11.2689C146.173 4.9339 137.546 1 128 1C121.064 1 114.613 3.07702 109.235 6.64303C103.034 -1.63968 93.1429 -7 82 -7C68.9096 -7 57.547 0.397827 51.865 11.2408C48.0147 6.80502 42.3349 4 36 4C24.402 4 15 13.402 15 25C15 36.598 24.402 46 36 46C41.6779 46 46.8295 43.7466 50.6093 40.0854C55.7352 52.3677 67.8595 61 82 61C88.9362 61 95.3873 58.923 100.765 55.357C106.966 63.6397 116.857 69 128 69C137.082 69 145.332 65.4393 151.43 59.6379C153.621 62.2881 157.093 64 161 64C165.636 64 169.658 61.5899 171.657 58.0618C175.204 59.317 179.022 60 183 60C188.215 60 193.156 58.8258 197.573 56.7274C200.348 60.5076 205.102 63 210.5 63C213.307 63 215.939 62.3262 218.21 61.1479C223.423 64.2308 229.505 66 236 66C242.174 66 247.975 64.4012 253.012 61.5949C253.324 69.6034 259.915 76 268 76C276.284 76 283 69.2843 283 61C283 60.993 283 60.9861 283 60.9791C285.728 62.2749 288.779 63 292 63C298.616 63 304.518 59.9403 308.367 55.1587C313.291 61.7402 321.148 66 330 66C336.262 66 342.026 63.8683 346.606 60.291C350.365 63.8308 355.429 66 361 66C372.598 66 382 56.598 382 45C382 33.402 372.598 24 361 24C358.301 24 355.721 24.5091 353.351 25.4365C348.674 17.4012 339.968 12 330 12C319.625 12 310.617 17.8514 306.096 26.4339C303.328 23.9251 299.887 22.1447 296.076 21.3952C293.477 13.0548 285.696 7 276.5 7C272.06 7 267.95 8.41152 264.593 10.8103C258.255 1.84993 247.811 -4 236 -4C226.164 -4 217.276 0.057065 210.918 6.589ZM267.665 46.0037C267.655 45.9991 267.646 45.9946 267.637 45.9901C267.634 45.9949 267.632 45.9997 267.63 46.0045C267.641 46.0042 267.653 46.0039 267.665 46.0037ZM24.9023 25C24.9023 31.1291 29.8709 36.0977 36 36.0977C42.1291 36.0977 47.0977 31.1291 47.0977 25C47.0977 18.8709 42.1291 13.9023 36 13.9023C29.8709 13.9023 24.9023 18.8709 24.9023 25ZM268 68.9269C263.622 68.9269 260.073 65.3779 260.073 61C260.073 56.6221 263.622 53.073 268 53.073C272.378 53.073 275.927 56.6221 275.927 61C275.927 65.3779 272.378 68.9269 268 68.9269Z" fill="#79BED5"/>
</g>
</g>
<defs>
<filter id="filter0_d_5_321" x="0" y="-23" width="397" height="114" filterUnits="userSpaceOnUse" color-interpolation-filters="sRGB">
<feFlood flood-opacity="0" result="BackgroundImageFix"/>
<feColorMatrix in="SourceAlpha" type="matrix" values="0 0 0 0 0 0 0 0 0 0 0 0 0 0 0 0 0 0 127 0" result="hardAlpha"/>
<feOffset/>
<feGaussianBlur stdDeviation="7.5"/>
<feComposite in2="hardAlpha" operator="out"/>
<feColorMatrix type="matrix" values="0 0 0 0 0 0 0 0 0 0 0 0 0 0 0 0 0 0 0.6 0"/>
<feBlend mode="normal" in2="BackgroundImageFix" result="effect1_dropShadow_5_321"/>
<feBlend mode="normal" in="SourceGraphic" in2="effect1_dropShadow_5_321" result="shape"/>
</filter>
</defs>
</svg>
