<svg width="440" height="180" viewBox="0 0 440 180" fill="none" xmlns="http://www.w3.org/2000/svg">
<mask id="mask0_5_253" style="mask-type:alpha" maskUnits="userSpaceOnUse" x="0" y="12" width="440" height="168">
<rect y="12" width="440" height="167.665" rx="60" fill="#4C92A9"/>
</mask>
<g mask="url(#mask0_5_253)">
<g filter="url(#filter0_d_5_253)">
<path fill-rule="evenodd" clip-rule="evenodd" d="M264.621 47.8773C264.287 48.4923 263.931 49.0947 263.553 49.6835C263.702 49.6794 263.851 49.6774 264 49.6774C264.408 49.6774 264.812 49.6927 265.212 49.7228C264.984 49.1206 264.787 48.5049 264.621 47.8773ZM237 63.8064C241.334 63.8064 245.461 62.9686 249.207 61.4556C249.071 62.2201 249 63.0055 249 63.8064C249 71.6097 255.716 77.9355 264 77.9355C272.284 77.9355 279 71.6097 279 63.8064C279 63.1983 278.959 62.5992 278.88 62.0114C280.816 62.5661 282.871 62.8645 285 62.8645C296.598 62.8645 306 54.0084 306 43.0838C306 32.1593 296.598 23.3032 285 23.3032C277.914 23.3032 271.649 26.6086 267.845 31.6716C266.283 16.923 253.069 5.40643 237 5.40643C224.12 5.40643 213.075 12.8048 208.394 23.3359C204.339 21.5037 199.797 20.4774 195 20.4774C189.983 20.4774 185.245 21.5999 181.052 23.5929C176.304 18.7793 169.526 15.7677 162 15.7677C147.641 15.7677 136 26.7324 136 40.258C136 51.2103 143.632 60.4833 154.161 63.6155C154.055 64.2927 154 64.9854 154 65.6903C154 73.4935 160.716 79.8193 169 79.8193C173.366 79.8193 177.297 78.0621 180.038 75.2574C184.474 77.5644 189.574 78.8774 195 78.8774C207.88 78.8774 218.925 71.479 223.606 60.948C227.661 62.7801 232.203 63.8064 237 63.8064ZM161.137 64.7351C161.424 64.7439 161.711 64.7484 162 64.7484C164.076 64.7484 166.095 64.5192 168.031 64.0861C169.669 66.8015 171.757 69.2451 174.198 71.3275C172.807 72.4671 170.989 73.157 169 73.157C164.622 73.157 161.073 69.814 161.073 65.6903C161.073 65.3667 161.095 65.0479 161.137 64.7351ZM256.073 63.8064C256.073 67.9302 259.622 71.2731 264 71.2731C268.378 71.2731 271.927 67.9302 271.927 63.8064C271.927 59.6827 268.378 56.3397 264 56.3397C259.622 56.3397 256.073 59.6827 256.073 63.8064Z" fill="#79BED5"/>
</g>
</g>
<defs>
<filter id="filter0_d_5_253" x="121" y="-9.59357" width="200" height="104.413" filterUnits="userSpaceOnUse" color-interpolation-filters="sRGB">
<feFlood flood-opacity="0" result="BackgroundImageFix"/>
<feColorMatrix in="SourceAlpha" type="matrix" values="0 0 0 0 0 0 0 0 0 0 0 0 0 0 0 0 0 0 127 0" result="hardAlpha"/>
<feOffset/>
<feGaussianBlur stdDeviation="7.5"/>
<feComposite in2="hardAlpha" operator="out"/>
<feColorMatrix type="matrix" values="0 0 0 0 0 0 0 0 0 0 0 0 0 0 0 0 0 0 0.6 0"/>
<feBlend mode="normal" in2="BackgroundImageFix" result="effect1_dropShadow_5_253"/>
<feBlend mode="normal" in="SourceGraphic" in2="effect1_dropShadow_5_253" result="shape"/>
</filter>
</defs>
</svg>
