<svg width="440" height="240" viewBox="0 0 440 240" fill="none" xmlns="http://www.w3.org/2000/svg">
<mask id="mask0_5_269" style="mask-type:alpha" maskUnits="userSpaceOnUse" x="0" y="12" width="440" height="228">
<rect y="12" width="440" height="227.075" rx="60" fill="#4C92A9"/>
</mask>
<g mask="url(#mask0_5_269)">
<g filter="url(#filter0_d_5_269)">
<path fill-rule="evenodd" clip-rule="evenodd" d="M302.5 96C313.154 96 323.119 92.9731 331.623 87.7112C338.294 95.2657 347.866 100 358.5 100C367.972 100 376.601 96.2437 383.089 90.084C383.844 96.7934 389.336 102 396 102C403.18 102 409 95.9558 409 88.5C409 81.0442 403.18 75 396 75C394.84 75 393.716 75.1577 392.646 75.4535C394.167 71.2714 395 66.7369 395 62C395 53.7234 392.458 46.0649 388.144 39.8241C394.303 38.8022 399 33.4496 399 27C399 19.8203 393.18 14 386 14C378.82 14 373 19.8203 373 27C373 27.039 373 27.0779 373.001 27.1169C371.995 26.663 370.965 26.2549 369.914 25.8951C369.971 25.1042 370 24.3055 370 23.5C370 5.55075 355.673 -9 338 -9C337.234 -9 336.475 -8.97267 335.722 -8.91893C326.398 -15.8883 314.917 -20 302.5 -20C291.823 -20 281.837 -16.9596 273.32 -11.6761C267.433 -13.8288 261.099 -15 254.5 -15C234.252 -15 216.492 -3.97231 206.517 12.5987C198.524 4.20973 187.357 -1 175 -1C169.609 -1 164.444 -0.00842667 159.671 1.80612C150.182 -5.60226 138.341 -10 125.5 -10C103.759 -10 84.8857 2.60588 75.4384 21.086C74.6328 21.029 73.8197 21 73 21C53.67 21 38 37.1177 38 57C38 61.1293 38.6759 65.0962 39.9202 68.7901C33.9862 72.3462 30 78.9459 30 86.5C30 97.8218 38.9543 107 50 107C58.9111 107 66.4611 101.026 69.0463 92.7729C70.3441 92.9229 71.6633 93 73 93C77.8554 93 82.4799 91.9831 86.6831 90.145C96.8057 99.9732 110.467 106 125.5 106C141.539 106 156.017 99.1393 166.302 88.1208C169.113 88.6975 172.022 89 175 89C179.193 89 183.25 88.4001 187.091 87.2796C191.191 90.2575 196.153 92 201.5 92C207.118 92 212.312 90.0763 216.526 86.817C226.558 96.2509 239.88 102 254.5 102C265.559 102 275.876 98.7103 284.587 93.0245C290.216 94.9546 296.239 96 302.5 96ZM39.4307 86.5C39.4307 82.7164 41.323 79.3859 44.1904 77.4484C48.0513 83.1923 53.4939 87.7253 59.8707 90.3814C58.3479 94.4473 54.5028 97.3335 50 97.3335C44.1628 97.3335 39.4307 92.4832 39.4307 86.5ZM389.13 88.5C389.13 92.4401 392.206 95.6343 396 95.6343C399.794 95.6343 402.87 92.4401 402.87 88.5C402.87 84.5599 399.794 81.3657 396 81.3657C392.206 81.3657 389.13 84.5599 389.13 88.5ZM386 33.87C382.206 33.87 379.13 30.7942 379.13 27C379.13 23.2058 382.206 20.13 386 20.13C389.794 20.13 392.87 23.2058 392.87 27C392.87 30.7942 389.794 33.87 386 33.87Z" fill="#79BED5"/>
</g>
</g>
<defs>
<filter id="filter0_d_5_269" x="15" y="-35" width="409" height="157" filterUnits="userSpaceOnUse" color-interpolation-filters="sRGB">
<feFlood flood-opacity="0" result="BackgroundImageFix"/>
<feColorMatrix in="SourceAlpha" type="matrix" values="0 0 0 0 0 0 0 0 0 0 0 0 0 0 0 0 0 0 127 0" result="hardAlpha"/>
<feOffset/>
<feGaussianBlur stdDeviation="7.5"/>
<feComposite in2="hardAlpha" operator="out"/>
<feColorMatrix type="matrix" values="0 0 0 0 0 0 0 0 0 0 0 0 0 0 0 0 0 0 0.6 0"/>
<feBlend mode="normal" in2="BackgroundImageFix" result="effect1_dropShadow_5_269"/>
<feBlend mode="normal" in="SourceGraphic" in2="effect1_dropShadow_5_269" result="shape"/>
</filter>
</defs>
</svg>
