<svg width="22" height="227" viewBox="0 0 22 227" fill="none" xmlns="http://www.w3.org/2000/svg">
<path d="M22 216C22 222.075 17.0751 227 11 227C4.92487 227 0 222.075 0 216C0 209.925 4.92487 205 11 205C17.0751 205 22 209.925 22 216ZM4.42454 216C4.42454 219.632 7.36848 222.575 11 222.575C14.6315 222.575 17.5755 219.632 17.5755 216C17.5755 212.368 14.6315 209.425 11 209.425C7.36848 209.425 4.42454 212.368 4.42454 216Z" fill="white"/>
<circle cx="11" cy="216" r="4" fill="#79BED5"/>
<path d="M22 86C22 92.0751 17.0751 97 11 97C4.92487 97 0 92.0751 0 86C0 79.9249 4.92487 75 11 75C17.0751 75 22 79.9249 22 86ZM4.42454 86C4.42454 89.6315 7.36848 92.5755 11 92.5755C14.6315 92.5755 17.5755 89.6315 17.5755 86C17.5755 82.3685 14.6315 79.4245 11 79.4245C7.36848 79.4245 4.42454 82.3685 4.42454 86Z" fill="white"/>
<circle cx="11" cy="86" r="4" fill="#79BED5"/>
<path d="M22 11C22 17.0751 17.0751 22 11 22C4.92487 22 0 17.0751 0 11C0 4.92487 4.92487 0 11 0C17.0751 0 22 4.92487 22 11ZM4.42454 11C4.42454 14.6315 7.36848 17.5755 11 17.5755C14.6315 17.5755 17.5755 14.6315 17.5755 11C17.5755 7.36848 14.6315 4.42454 11 4.42454C7.36848 4.42454 4.42454 7.36848 4.42454 11Z" fill="white"/>
<circle cx="11" cy="11" r="4" fill="#79BED5"/>
<line x1="10.8125" y1="76.0006" x2="10.8125" y2="20.9944" stroke="white" stroke-width="2" stroke-linecap="round" stroke-dasharray="10 10"/>
<line x1="11.0012" y1="204.999" x2="11.1272" y2="96.9987" stroke="white" stroke-width="2" stroke-linecap="round" stroke-dasharray="10 10"/>
</svg>
