<svg width="80" height="80" viewBox="0 0 80 80" fill="none" xmlns="http://www.w3.org/2000/svg">
<g filter="url(#filter0_d_10_150)">
<circle cx="40" cy="40" r="31.5" fill="#79BED5" stroke="white" stroke-width="3"/>
<g clip-path="url(#clip0_10_150)">
<path d="M44.5521 53.3171C45.9703 54.233 47.6606 54.6324 49.3387 54.4481C51.0168 54.2638 52.5802 53.5071 53.7658 52.3052L54.8021 51.2911C55.2562 50.8265 55.5105 50.2026 55.5105 49.5529C55.5105 48.9032 55.2562 48.2793 54.8021 47.8146L50.4045 43.4614C49.9436 43.0086 49.3234 42.7549 48.6773 42.7549C48.0313 42.7549 47.4111 43.0086 46.9502 43.4614C46.4855 43.9162 45.8611 44.1709 45.2109 44.1709C44.5606 44.1709 43.9363 43.9162 43.4716 43.4614L36.563 36.5528C36.3325 36.3256 36.1494 36.0548 36.0245 35.7562C35.8996 35.4576 35.8352 35.1371 35.8352 34.8135C35.8352 34.4898 35.8996 34.1693 36.0245 33.8708C36.1494 33.5722 36.3325 33.3014 36.563 33.0741C37.0157 32.6133 37.2694 31.9931 37.2694 31.347C37.2694 30.7009 37.0157 30.0807 36.563 29.6199L32.1831 25.24C31.7185 24.7858 31.0946 24.5316 30.4449 24.5316C29.7952 24.5316 29.1713 24.7858 28.7067 25.24L27.6926 26.2763C26.4913 27.4616 25.7347 29.0244 25.55 30.7019C25.3653 32.3795 25.7638 34.0694 26.6784 35.4877C31.4462 42.5152 37.5129 48.5668 44.5521 53.3171Z" fill="white"/>
</g>
</g>
<defs>
<filter id="filter0_d_10_150" x="0.3" y="0.3" width="79.4" height="79.4" filterUnits="userSpaceOnUse" color-interpolation-filters="sRGB">
<feFlood flood-opacity="0" result="BackgroundImageFix"/>
<feColorMatrix in="SourceAlpha" type="matrix" values="0 0 0 0 0 0 0 0 0 0 0 0 0 0 0 0 0 0 127 0" result="hardAlpha"/>
<feOffset/>
<feGaussianBlur stdDeviation="3.35"/>
<feComposite in2="hardAlpha" operator="out"/>
<feColorMatrix type="matrix" values="0 0 0 0 0 0 0 0 0 0 0 0 0 0 0 0 0 0 0.25 0"/>
<feBlend mode="normal" in2="BackgroundImageFix" result="effect1_dropShadow_10_150"/>
<feBlend mode="normal" in="SourceGraphic" in2="effect1_dropShadow_10_150" result="shape"/>
</filter>
<clipPath id="clip0_10_150">
<rect width="31" height="31" fill="white" transform="matrix(-1 0 0 1 56 24)"/>
</clipPath>
</defs>
</svg>
