<svg width="88" height="88" viewBox="0 0 88 88" fill="none" xmlns="http://www.w3.org/2000/svg">
<g filter="url(#filter0_d_5_62)">
<circle cx="44" cy="44" r="34" fill="#79BED5"/>
<circle cx="44" cy="44" r="35.5" stroke="white" stroke-width="3"/>
</g>
<path d="M44.2817 21.436C42.1302 21.5026 40.4667 23.2992 40.5332 25.4285C40.5554 25.9608 40.6663 26.4709 40.8881 26.9811L41.5313 28.4006C41.62 28.689 41.4648 28.9995 41.1543 29.0882C40.9546 29.1991 40.7328 29.0882 40.5776 28.9108L39.646 27.6908C38.9141 26.7593 37.805 26.1826 36.6295 26.1604C34.478 26.1161 32.7036 27.8239 32.6592 29.9532C32.6371 30.8848 32.9476 31.772 33.5243 32.5261L34.4558 33.6351H34.478C34.6555 33.9235 34.5889 34.2784 34.3449 34.4558C34.1453 34.6111 33.8791 34.6111 33.7017 34.4558L32.5262 33.5242C31.772 32.9476 30.8626 32.637 29.9532 32.6592C27.8239 32.7036 26.1161 34.478 26.1604 36.6295C26.1826 37.805 26.7593 38.914 27.6909 39.646L28.9551 40.6219C29.1991 40.8437 29.1991 41.1986 28.933 41.3982C28.86 41.4739 28.7654 41.5251 28.6622 41.545C28.5589 41.5648 28.4521 41.5523 28.3563 41.5091H28.3341L26.9811 40.8881C26.4709 40.6885 25.9608 40.5554 25.4285 40.5332C23.2992 40.4667 21.5026 42.1524 21.436 44.3038C21.436 45.9008 22.3232 47.3647 23.7871 47.9858L49.0504 59.2311L59.2312 49.0504L47.9858 23.7871C47.3647 22.3011 45.8343 21.3695 44.2817 21.436ZM46.1226 30.5299C47.0542 30.5077 47.8971 31.0401 48.2519 31.8829L55.0169 47.0542L46.2557 38.3152L44.193 33.6351C43.5275 32.2378 44.5478 30.5743 46.1226 30.5299ZM38.8475 36.6295C39.4464 36.6295 40.0009 36.8513 40.4223 37.2949L51.091 47.9636C51.9782 48.8064 52.0004 50.2038 51.1575 51.091C50.2703 51.9782 48.8952 52.0004 47.9636 51.091L37.2949 40.4223C37.0839 40.2214 36.9152 39.9805 36.7985 39.7136C36.6819 39.4467 36.6197 39.1592 36.6156 38.8679C36.6114 38.5767 36.6655 38.2875 36.7745 38.0174C36.8835 37.7473 37.0454 37.5017 37.2505 37.2949C37.672 36.8513 38.2487 36.6295 38.8475 36.6295ZM32.8145 43.9933C33.1028 43.9933 33.4134 44.082 33.6352 44.1929L38.3596 46.2779L47.0986 55.0169L31.8829 48.2519C29.6205 47.276 30.3747 43.9268 32.8145 43.9933ZM61.9815 52.5771L52.5771 61.9815L54.4624 63.8668C56.1481 65.5303 58.5879 66.1735 60.8725 65.5747C61.9974 65.2673 63.0228 64.6719 63.8474 63.8473C64.672 63.0227 65.2673 61.9974 65.5747 60.8725C66.1736 58.5879 65.5303 56.1481 63.8668 54.4624L61.9815 52.5771Z" fill="white"/>
<defs>
<filter id="filter0_d_5_62" x="0.3" y="0.3" width="87.4" height="87.4" filterUnits="userSpaceOnUse" color-interpolation-filters="sRGB">
<feFlood flood-opacity="0" result="BackgroundImageFix"/>
<feColorMatrix in="SourceAlpha" type="matrix" values="0 0 0 0 0 0 0 0 0 0 0 0 0 0 0 0 0 0 127 0" result="hardAlpha"/>
<feOffset/>
<feGaussianBlur stdDeviation="3.35"/>
<feComposite in2="hardAlpha" operator="out"/>
<feColorMatrix type="matrix" values="0 0 0 0 0 0 0 0 0 0 0 0 0 0 0 0 0 0 0.25 0"/>
<feBlend mode="normal" in2="BackgroundImageFix" result="effect1_dropShadow_5_62"/>
<feBlend mode="normal" in="SourceGraphic" in2="effect1_dropShadow_5_62" result="shape"/>
</filter>
</defs>
</svg>
